<mxfile host="app.diagrams.net" modified="2021-04-13T03:33:39.677Z" agent="5.0 (Macintosh; Intel Mac OS X 10_15_6) AppleWebKit/605.1.15 (KHTML, like Gecko) Version/14.0.3 Safari/605.1.15" etag="qzslvYnrD0hj-Vub7H-r" version="14.5.10" type="github">
  <diagram id="Ost19GGUzA_I3IMaP9q7" name="Page-1">
    <mxGraphModel dx="945" dy="1844" grid="1" gridSize="10" guides="1" tooltips="1" connect="1" arrows="1" fold="1" page="1" pageScale="1" pageWidth="827" pageHeight="1169" math="0" shadow="0">
      <root>
        <mxCell id="0" />
        <mxCell id="1" parent="0" />
        <mxCell id="QgCOeL-p_vlZ4WeEQOBY-1" value="" style="rounded=0;whiteSpace=wrap;html=1;dashed=1;" vertex="1" parent="1">
          <mxGeometry x="435" y="-583" width="215" height="260" as="geometry" />
        </mxCell>
        <mxCell id="QgCOeL-p_vlZ4WeEQOBY-2" style="edgeStyle=orthogonalEdgeStyle;rounded=0;orthogonalLoop=1;jettySize=auto;html=1;entryX=0.03;entryY=0.5;entryDx=0;entryDy=0;entryPerimeter=0;" edge="1" parent="1" source="QgCOeL-p_vlZ4WeEQOBY-4" target="QgCOeL-p_vlZ4WeEQOBY-5">
          <mxGeometry relative="1" as="geometry">
            <mxPoint x="420" y="-470" as="targetPoint" />
          </mxGeometry>
        </mxCell>
        <mxCell id="QgCOeL-p_vlZ4WeEQOBY-3" value="使用Web，登录、创建APP,得到APP ID和Secret" style="edgeLabel;html=1;align=center;verticalAlign=middle;resizable=0;points=[];" vertex="1" connectable="0" parent="QgCOeL-p_vlZ4WeEQOBY-2">
          <mxGeometry x="0.2407" y="1" relative="1" as="geometry">
            <mxPoint as="offset" />
          </mxGeometry>
        </mxCell>
        <mxCell id="QgCOeL-p_vlZ4WeEQOBY-4" value="组织管理员" style="shape=umlActor;verticalLabelPosition=bottom;verticalAlign=top;html=1;outlineConnect=0;" vertex="1" parent="1">
          <mxGeometry x="200" y="-520" width="30" height="60" as="geometry" />
        </mxCell>
        <mxCell id="QgCOeL-p_vlZ4WeEQOBY-5" value="&lt;font size=&quot;1&quot;&gt;用户自服务后台&lt;br&gt;&lt;/font&gt;" style="aspect=fixed;pointerEvents=1;shadow=0;dashed=0;html=1;strokeColor=#9673a6;labelPosition=center;verticalLabelPosition=bottom;verticalAlign=top;align=center;fillColor=#e1d5e7;shape=mxgraph.mscae.enterprise.device" vertex="1" parent="1">
          <mxGeometry x="540" y="-530" width="50" height="26" as="geometry" />
        </mxCell>
        <mxCell id="QgCOeL-p_vlZ4WeEQOBY-6" style="edgeStyle=orthogonalEdgeStyle;rounded=0;orthogonalLoop=1;jettySize=auto;html=1;exitX=0.5;exitY=1;exitDx=0;exitDy=0;exitPerimeter=0;" edge="1" parent="1" source="QgCOeL-p_vlZ4WeEQOBY-5" target="QgCOeL-p_vlZ4WeEQOBY-5">
          <mxGeometry relative="1" as="geometry" />
        </mxCell>
        <mxCell id="QgCOeL-p_vlZ4WeEQOBY-7" value="&lt;span style=&quot;font-size: 12px&quot;&gt;云密钥管理系统&lt;/span&gt;" style="text;strokeColor=none;fillColor=none;html=1;fontSize=24;fontStyle=1;verticalAlign=middle;align=center;dashed=1;" vertex="1" parent="1">
          <mxGeometry x="462.5" y="-584" width="160" height="40" as="geometry" />
        </mxCell>
        <mxCell id="QgCOeL-p_vlZ4WeEQOBY-8" value="&lt;font size=&quot;1&quot;&gt;KLMS服务&lt;br&gt;&lt;/font&gt;" style="aspect=fixed;pointerEvents=1;shadow=0;dashed=0;html=1;strokeColor=#9673a6;labelPosition=center;verticalLabelPosition=bottom;verticalAlign=top;align=center;fillColor=#e1d5e7;shape=mxgraph.mscae.enterprise.device" vertex="1" parent="1">
          <mxGeometry x="540" y="-410" width="50" height="26" as="geometry" />
        </mxCell>
        <mxCell id="QgCOeL-p_vlZ4WeEQOBY-9" style="edgeStyle=orthogonalEdgeStyle;rounded=0;orthogonalLoop=1;jettySize=auto;html=1;entryX=0.5;entryY=1;entryDx=0;entryDy=0;entryPerimeter=0;" edge="1" parent="1" source="QgCOeL-p_vlZ4WeEQOBY-11" target="QgCOeL-p_vlZ4WeEQOBY-8">
          <mxGeometry relative="1" as="geometry" />
        </mxCell>
        <mxCell id="QgCOeL-p_vlZ4WeEQOBY-10" value="通过SDK,创建/查询主密钥信息、创建数据密钥，&lt;br&gt;销毁主密钥等操作API" style="edgeLabel;html=1;align=center;verticalAlign=middle;resizable=0;points=[];" vertex="1" connectable="0" parent="QgCOeL-p_vlZ4WeEQOBY-9">
          <mxGeometry x="0.0345" y="4" relative="1" as="geometry">
            <mxPoint x="-27" y="28" as="offset" />
          </mxGeometry>
        </mxCell>
        <mxCell id="QgCOeL-p_vlZ4WeEQOBY-11" value="&lt;font size=&quot;1&quot;&gt;用户业务服务器&lt;br&gt;+&lt;br&gt;KMS SDK&lt;br&gt;&lt;/font&gt;" style="aspect=fixed;pointerEvents=1;shadow=0;dashed=0;html=1;strokeColor=#9673a6;labelPosition=center;verticalLabelPosition=bottom;verticalAlign=top;align=center;fillColor=#e1d5e7;shape=mxgraph.mscae.enterprise.device" vertex="1" parent="1">
          <mxGeometry x="190" y="-420" width="50" height="26" as="geometry" />
        </mxCell>
        <mxCell id="QgCOeL-p_vlZ4WeEQOBY-12" style="edgeStyle=orthogonalEdgeStyle;rounded=0;orthogonalLoop=1;jettySize=auto;html=1;exitX=0.5;exitY=0.5;exitDx=0;exitDy=0;exitPerimeter=0;entryX=0.5;entryY=0;entryDx=0;entryDy=0;entryPerimeter=0;" edge="1" parent="1" source="QgCOeL-p_vlZ4WeEQOBY-4" target="QgCOeL-p_vlZ4WeEQOBY-4">
          <mxGeometry relative="1" as="geometry" />
        </mxCell>
        <mxCell id="QgCOeL-p_vlZ4WeEQOBY-13" value="&lt;font size=&quot;1&quot;&gt;系统运营管理服务后台&lt;br&gt;&lt;/font&gt;" style="aspect=fixed;pointerEvents=1;shadow=0;dashed=0;html=1;strokeColor=#9673a6;labelPosition=center;verticalLabelPosition=bottom;verticalAlign=top;align=center;fillColor=#e1d5e7;shape=mxgraph.mscae.enterprise.device" vertex="1" parent="1">
          <mxGeometry x="540" y="-470" width="50" height="26" as="geometry" />
        </mxCell>
      </root>
    </mxGraphModel>
  </diagram>
</mxfile>
